<svg xmlns="http://www.w3.org/2000/svg" viewBox="0 0 800 1000"><rect width="800" height="1000" fill="#F3EEE5"/><path d="M30 250v-95a115 115 0 0 1 230 0v95" fill="none" stroke="#B38858" stroke-width="14" opacity=".72"/><path d="M310 250v-95a115 115 0 0 1 230 0v95" fill="none" stroke="#1E2933" stroke-width="14" opacity=".72"/><path d="M590 250v-95a115 115 0 0 1 230 0v95" fill="none" stroke="#B38858" stroke-width="14" opacity=".72"/><path d="M170 550v-95a115 115 0 0 1 230 0v95" fill="none" stroke="#1E2933" stroke-width="14" opacity=".72"/><path d="M450 550v-95a115 115 0 0 1 230 0v95" fill="none" stroke="#B38858" stroke-width="14" opacity=".72"/><path d="M30 870v-95a115 115 0 0 1 230 0v95" fill="none" stroke="#1E2933" stroke-width="14" opacity=".72"/><path d="M310 870v-95a115 115 0 0 1 230 0v95" fill="none" stroke="#B38858" stroke-width="14" opacity=".72"/><path d="M590 870v-95a115 115 0 0 1 230 0v95" fill="none" stroke="#1E2933" stroke-width="14" opacity=".72"/></svg>