<svg xmlns="http://www.w3.org/2000/svg" viewBox="0 0 800 1000"><rect width="800" height="1000" fill="#F4E8DD"/><g transform="translate(150 180)"><circle r="70" fill="#D7A17D" opacity=".28"/><g fill="none" stroke="#A65D46" stroke-width="8"><path d="M0 0c-110-60-130 85-20 75C-80 180 70 180 50 70 170 90 160-65 50-45 65-170-85-160-65-45-175-70-165 80-55 60Z"/></g></g><g transform="translate(580 220)"><circle r="70" fill="#D7A17D" opacity=".28"/><g fill="none" stroke="#A65D46" stroke-width="8"><path d="M0 0c-110-60-130 85-20 75C-80 180 70 180 50 70 170 90 160-65 50-45 65-170-85-160-65-45-175-70-165 80-55 60Z"/></g></g><g transform="translate(340 520)"><circle r="70" fill="#D7A17D" opacity=".28"/><g fill="none" stroke="#A65D46" stroke-width="8"><path d="M0 0c-110-60-130 85-20 75C-80 180 70 180 50 70 170 90 160-65 50-45 65-170-85-160-65-45-175-70-165 80-55 60Z"/></g></g><g transform="translate(690 760)"><circle r="70" fill="#D7A17D" opacity=".28"/><g fill="none" stroke="#A65D46" stroke-width="8"><path d="M0 0c-110-60-130 85-20 75C-80 180 70 180 50 70 170 90 160-65 50-45 65-170-85-160-65-45-175-70-165 80-55 60Z"/></g></g><g transform="translate(120 840)"><circle r="70" fill="#D7A17D" opacity=".28"/><g fill="none" stroke="#A65D46" stroke-width="8"><path d="M0 0c-110-60-130 85-20 75C-80 180 70 180 50 70 170 90 160-65 50-45 65-170-85-160-65-45-175-70-165 80-55 60Z"/></g></g></svg>