<svg xmlns="http://www.w3.org/2000/svg" viewBox="0 0 1600 1000"><defs><linearGradient id="bg" x1="0" x2="1"><stop stop-color="#e9e1d5"/><stop offset="1" stop-color="#f6f2eb"/></linearGradient><pattern id="p" width="180" height="180" patternUnits="userSpaceOnUse"><rect width="180" height="180" fill="#e8ded0"/><path d="M0 160C35 70 70 20 145 0M60 180C90 105 125 55 180 30" fill="none" stroke="#304a43" stroke-width="8" opacity=".72"/><circle cx="145" cy="40" r="28" fill="#b56f4a" opacity=".42"/></pattern><filter id="s"><feDropShadow dx="0" dy="18" stdDeviation="18" flood-opacity=".18"/></filter></defs><rect width="1600" height="1000" fill="url(#bg)"/><rect x="550" width="1050" height="760" fill="url(#p)"/><rect y="760" width="1600" height="240" fill="#c6ad91"/><rect x="700" y="660" width="590" height="170" rx="32" fill="#f4efe8" filter="url(#s)"/><rect x="760" y="595" width="470" height="110" rx="45" fill="#d6c2aa"/><rect x="250" y="355" width="210" height="405" rx="105" fill="#203944" opacity=".95"/><circle cx="355" cy="310" r="95" fill="#9a6e4e"/><rect x="75" y="690" width="320" height="70" rx="25" fill="#7a604e"/><circle cx="1350" cy="705" r="120" fill="#304a43" opacity=".88"/><path d="M1350 730c-120-160-90-300 0-410 95 125 110 255 0 410Z" fill="#597166"/></svg>